<?xml version="1.0" encoding="utf-8" ?>
<svg xmlns="http://www.w3.org/2000/svg" xmlns:xlink="http://www.w3.org/1999/xlink" width="14" height="12">
	<path fill="#57585A" d="M9.3000002 12L6.4666667 9.166667L7.4000001 8.2333336L9.3000002 10.133333L13.066667 6.3666668L14 7.3000002L9.3000002 12ZM6.6666665 4.6666665L12 1.3333334L1.3333334 1.3333334L6.6666665 4.6666665ZM6.6666665 6L1.3333334 2.6666667L1.3333334 9.333333L4.7666669 9.333333L6.0999999 10.666667L1.3333334 10.666667C0.96666664 10.666667 0.65277779 10.536111 0.39166668 10.275C0.13055556 10.013889 0 9.6999998 0 9.333333L0 1.3333334C0 0.96666664 0.13055556 0.65277779 0.39166668 0.39166668C0.65277779 0.13055556 0.96666664 0 1.3333334 0L12 0C12.366667 0 12.680555 0.13055556 12.941667 0.39166668C13.202778 0.65277779 13.333333 0.96666664 13.333333 1.3333334L13.333333 4.2333331L12 5.5666666L12 2.6666667L6.6666665 6Z"/>
</svg>
