<?xml version="1.0" encoding="utf-8" ?>
<svg xmlns="http://www.w3.org/2000/svg" xmlns:xlink="http://www.w3.org/1999/xlink" width="14" height="14">
	<path fill="#57585A" d="M6.02 14C5.4250002 14 4.9729166 13.822083 4.6637502 13.46625C4.3545833 13.110416 4.1999998 12.705 4.1999998 12.25C4.1999998 11.946667 4.2670832 11.652083 4.4012499 11.36625C4.5354166 11.080417 4.7424998 10.844167 5.0225 10.6575C5.2791667 10.494166 5.4862499 10.284166 5.6437502 10.0275C5.80125 9.770833 5.9091668 9.4966669 5.9675002 9.2049999L5.7575002 9.1000004C5.6875 9.0649996 5.6233335 9.0241671 5.5650001 8.9775L3.9549999 9.5550003C3.7566667 9.625 3.5641668 9.6833334 3.3775001 9.7299995C3.1908333 9.7766666 2.9983332 9.8000002 2.8 9.8000002C2.0650001 9.8000002 1.4145833 9.479167 0.84875 8.8374996C0.28291667 8.1958332 0 7.2566667 0 6.02C0 5.4250002 0.17791666 4.9729166 0.53375 4.6637502C0.88958335 4.3545833 1.2891667 4.1999998 1.7325 4.1999998C2.0358334 4.1999998 2.3333333 4.2670832 2.625 4.4012499C2.9166667 4.5354166 3.1558332 4.7424998 3.3425 5.0225C3.5058334 5.2791667 3.7158334 5.4862499 3.9725001 5.6437502C4.2291665 5.80125 4.5033336 5.9091668 4.7950001 5.9675002L4.9000001 5.7575002C4.9349999 5.6875 4.9758334 5.6233335 5.0225 5.5650001L4.4450002 3.9549999C4.375 3.7566667 4.3166666 3.5641668 4.27 3.3775001C4.2233334 3.1908333 4.1999998 3.0041666 4.1999998 2.8175001C4.1999998 2.0708334 4.5208335 1.4145833 5.1624999 0.84875C5.8041668 0.28291667 6.7433333 0 7.98 0C8.5749998 0 9.0270834 0.17791666 9.3362503 0.53375C9.6454163 0.88958335 9.8000002 1.2891667 9.8000002 1.7325C9.8000002 2.0358334 9.7329168 2.3333333 9.5987501 2.625C9.4645834 2.9166667 9.2574997 3.1558332 8.9775 3.3425C8.7208338 3.5058334 8.5137501 3.7158334 8.3562498 3.9725001C8.1987495 4.2291665 8.0908337 4.5033336 8.0325003 4.7950001L8.2425003 4.9000001C8.3125 4.9349999 8.376667 4.9758334 8.4350004 5.0225L10.045 4.4274998C10.243333 4.3575001 10.432917 4.3020835 10.61375 4.26125C10.794583 4.2204165 10.984167 4.1999998 11.1825 4.1999998C12.1275 4.1999998 12.833333 4.5908332 13.3 5.3724999C13.766666 6.1541667 14 7.0233335 14 7.98C14 8.5749998 13.813334 9.0270834 13.44 9.3362503C13.066667 9.6454163 12.6525 9.8000002 12.1975 9.8000002C11.905833 9.8000002 11.622916 9.7329168 11.34875 9.5987501C11.074583 9.4645834 10.844167 9.2574997 10.6575 8.9775C10.494166 8.7208338 10.284166 8.5137501 10.0275 8.3562498C9.770833 8.1987495 9.4966669 8.0908337 9.2049999 8.0325003L9.1000004 8.2425003C9.0649996 8.3125 9.0241671 8.376667 8.9775 8.4350004L9.5550003 10.045C9.625 10.231667 9.6833334 10.409583 9.7299995 10.57875C9.7766666 10.747916 9.8000002 10.925834 9.8000002 11.1125C9.8116665 11.870833 9.4966669 12.541667 8.8549995 13.125C8.2133331 13.708333 7.2683334 14 6.02 14ZM7 8.0500002C7.2916665 8.0500002 7.5395832 7.9479165 7.7437501 7.7437501C7.9479165 7.5395832 8.0500002 7.2916665 8.0500002 7C8.0500002 6.7083335 7.9479165 6.4604168 7.7437501 6.2562499C7.5395832 6.0520835 7.2916665 5.9499998 7 5.9499998C6.7083335 5.9499998 6.4604168 6.0520835 6.2562499 6.2562499C6.0520835 6.4604168 5.9499998 6.7083335 5.9499998 7C5.9499998 7.2916665 6.0520835 7.5395832 6.2562499 7.7437501C6.4604168 7.9479165 6.7083335 8.0500002 7 8.0500002ZM6.1950002 4.6900001C6.2649999 4.6666665 6.3379169 4.6462498 6.4137502 4.6287498C6.4895835 4.6112499 6.5625 4.5966668 6.6325002 4.585C6.7258334 4.0949998 6.9037499 3.6400001 7.1662502 3.22C7.42875 2.8 7.7758331 2.45 8.2075005 2.1700001C8.2658329 2.1233332 8.3125 2.0650001 8.3474998 1.995C8.3824997 1.925 8.3999996 1.8375 8.3999996 1.7325C8.3999996 1.6391667 8.3649998 1.5604167 8.2950001 1.49625C8.2250004 1.4320834 8.1199999 1.4 7.98 1.4C7.5366669 1.4 7.0349998 1.49625 6.4749999 1.68875C5.915 1.88125 5.6233335 2.2574999 5.5999999 2.8175001C5.5999999 2.9224999 5.6145835 3.0216668 5.6437502 3.115C5.6729169 3.2083333 5.6991668 3.2958333 5.7224998 3.3775001L6.1950002 4.6900001ZM2.8 8.3999996C2.9633334 8.3999996 3.1558332 8.3591671 3.3775001 8.2775002L4.6900001 7.8049998C4.6666665 7.7350001 4.6462498 7.6620831 4.6287498 7.5862498C4.6112499 7.5104165 4.5966668 7.4375 4.585 7.3674998C4.0949998 7.2741666 3.6400001 7.0962501 3.22 6.8337498C2.8 6.57125 2.45 6.2241669 2.1700001 5.7925C2.1233332 5.7341666 2.0620832 5.6875 1.98625 5.6525002C1.9104167 5.6174998 1.8258333 5.5999999 1.7325 5.5999999C1.6275001 5.5999999 1.5458333 5.6350002 1.4875 5.7049999C1.4291667 5.7750001 1.4 5.8800001 1.4 6.02C1.4 6.6500001 1.5195833 7.2041669 1.75875 7.6824999C1.9979167 8.1608334 2.345 8.3999996 2.8 8.3999996ZM6.02 12.6C6.5683331 12.6 7.1079168 12.489166 7.6387501 12.2675C8.1695833 12.045834 8.4233332 11.660833 8.3999996 11.1125C8.3999996 11.019167 8.385417 10.931666 8.3562498 10.85C8.3270836 10.768333 8.3008337 10.6925 8.2775002 10.6225L7.8049998 9.3100004C7.7350001 9.333333 7.6620831 9.3537502 7.5862498 9.3712502C7.5104165 9.3887501 7.4375 9.4033337 7.3674998 9.415C7.2741666 9.9049997 7.0962501 10.36 6.8337498 10.78C6.57125 11.2 6.2241669 11.55 5.7925 11.83C5.7341666 11.876667 5.6845832 11.937917 5.6437502 12.01375C5.6029167 12.089583 5.5883331 12.168333 5.5999999 12.25C5.6116667 12.343333 5.6466665 12.425 5.7049999 12.495C5.7633333 12.565 5.8683333 12.6 6.02 12.6ZM12.1975 8.3999996C12.3025 8.3999996 12.395833 8.3708334 12.4775 8.3125C12.559167 8.2541666 12.6 8.1433334 12.6 7.98C12.6 7.5366669 12.506667 7.0320835 12.32 6.4662499C12.133333 5.9004169 11.754167 5.6116667 11.1825 5.5999999C11.0775 5.5999999 10.978333 5.6116667 10.885 5.6350002C10.791667 5.6583333 10.704166 5.6816669 10.6225 5.7049999L9.3100004 6.1950002C9.333333 6.2649999 9.3537502 6.3379169 9.3712502 6.4137502C9.3887501 6.4895835 9.4033337 6.5625 9.415 6.6325002C9.9049997 6.7258334 10.36 6.9037499 10.78 7.1662502C11.2 7.42875 11.55 7.7758331 11.83 8.2075005C11.865 8.2658329 11.9175 8.3125 11.9875 8.3474998C12.0575 8.3824997 12.1275 8.3999996 12.1975 8.3999996Z"/>
</svg>
