<?xml version="1.0" encoding="utf-8" ?>
<svg xmlns="http://www.w3.org/2000/svg" xmlns:xlink="http://www.w3.org/1999/xlink" width="12" height="12">
	<path fill="#57585A" d="M1.3333334 12C0.96666664 12 0.65277779 11.869445 0.39166668 11.608334C0.13055556 11.347222 0 11.033334 0 10.666667L0 1.3333334C0 0.96666664 0.13055556 0.65277779 0.39166668 0.39166668C0.65277779 0.13055556 0.96666664 0 1.3333334 0L8.666667 0L12 3.3333333L12 10.666667C12 11.033334 11.869445 11.347222 11.608334 11.608334C11.347222 11.869445 11.033334 12 10.666667 12L1.3333334 12ZM1.3333334 10.666667L10.666667 10.666667L10.666667 4L8 4L8 1.3333334L1.3333334 1.3333334L1.3333334 10.666667ZM2.6666667 9.333333L9.333333 9.333333L9.333333 8L2.6666667 8L2.6666667 9.333333ZM2.6666667 4L6 4L6 2.6666667L2.6666667 2.6666667L2.6666667 4ZM2.6666667 6.6666665L9.333333 6.6666665L9.333333 5.3333335L2.6666667 5.3333335L2.6666667 6.6666665ZM1.375 1.3333334L1.375 4L1.375 1.3333334L1.375 10.666667L1.375 1.3333334Z"/>
</svg>
