<?xml version="1.0" encoding="utf-8" ?>
<svg xmlns="http://www.w3.org/2000/svg" xmlns:xlink="http://www.w3.org/1999/xlink" width="12" height="14">
	<path fill="#57585A" d="M6 14L4 12L1.3333334 12C0.96666664 12 0.65277779 11.869445 0.39166668 11.608334C0.13055556 11.347222 0 11.033334 0 10.666667L0 1.3333334C0 0.96666664 0.13055556 0.65277779 0.39166668 0.39166668C0.65277779 0.13055556 0.96666664 0 1.3333334 0L10.666667 0C11.033334 0 11.347222 0.13055556 11.608334 0.39166668C11.869445 0.65277779 12 0.96666664 12 1.3333334L12 10.666667C12 11.033334 11.869445 11.347222 11.608334 11.608334C11.347222 11.869445 11.033334 12 10.666667 12L8 12L6 14ZM1.3333334 9.8999996C1.9333333 9.3111115 2.6305556 8.8472223 3.425 8.5083332C4.2194443 8.1694441 5.0777779 8 6 8C6.9222221 8 7.7805557 8.1694441 8.5749998 8.5083332C9.3694448 8.8472223 10.066667 9.3111115 10.666667 9.8999996L10.666667 1.3333334L1.3333334 1.3333334L1.3333334 9.8999996ZM6 6.6666665C6.6444445 6.6666665 7.1944447 6.438889 7.6500001 5.9833331C8.1055555 5.5277777 8.333333 4.977778 8.333333 4.3333335C8.333333 3.6888888 8.1055555 3.1388888 7.6500001 2.6833334C7.1944447 2.2277777 6.6444445 2 6 2C5.3555555 2 4.8055553 2.2277777 4.3499999 2.6833334C3.8944445 3.1388888 3.6666667 3.6888888 3.6666667 4.3333335C3.6666667 4.977778 3.8944445 5.5277777 4.3499999 5.9833331C4.8055553 6.438889 5.3555555 6.6666665 6 6.6666665ZM2.6666667 10.666667L9.333333 10.666667L9.333333 10.5C8.8666668 10.111111 8.3500004 9.8194447 7.7833333 9.625C7.2166667 9.4305553 6.6222224 9.333333 6 9.333333C5.3777776 9.333333 4.7833333 9.4305553 4.2166667 9.625C3.6500001 9.8194447 3.1333334 10.111111 2.6666667 10.5L2.6666667 10.666667ZM6 5.3333335C5.7222223 5.3333335 5.4861112 5.2361112 5.2916665 5.0416665C5.0972223 4.8472223 5 4.6111112 5 4.3333335C5 4.0555553 5.0972223 3.8194444 5.2916665 3.625C5.4861112 3.4305556 5.7222223 3.3333333 6 3.3333333C6.2777777 3.3333333 6.5138888 3.4305556 6.7083335 3.625C6.9027777 3.8194444 7 4.0555553 7 4.3333335C7 4.6111112 6.9027777 4.8472223 6.7083335 5.0416665C6.5138888 5.2361112 6.2777777 5.3333335 6 5.3333335Z"/>
</svg>
